<?xml version="1.0" standalone="no"?>
<!DOCTYPE svg PUBLIC "-//W3C//DTD SVG 1.1//EN" "http://www.w3.org/Graphics/SVG/1.1/DTD/svg11.dtd" >
<svg xmlns="http://www.w3.org/2000/svg">
<metadata>Generated by IcoMoon</metadata>
<defs>
<font id="icomoon" horiz-adv-x="1024">
<font-face units-per-em="1024" ascent="960" descent="-64" />
<missing-glyph horiz-adv-x="1024" />
<glyph unicode="&#x20;" horiz-adv-x="512" d="" />
<glyph unicode="&#xe900;" glyph-name="addperson" d="M651.52 448c102.787 0 186.112 83.325 186.112 186.112s-83.325 186.112-186.112 186.112c-102.787 0-186.112-83.325-186.112-186.112s83.325-186.112 186.112-186.112zM232.704 541.184v139.52h-92.928v-139.52h-139.776v-93.184h139.776v-139.52h92.928v139.52h139.52v93.184h-139.52zM651.52 355.072c-124.16 0-372.48-62.464-372.48-186.112v-93.184h744.96v93.184c0 123.904-248.064 186.112-372.48 186.112z" />
<glyph unicode="&#xe901;" glyph-name="block" d="M512 960c-282.77 0-512-229.23-512-512s229.23-512 512-512c282.77 0 512 229.23 512 512s-229.23 512-512 512zM768 396.8h-512v102.4h512z" />
<glyph unicode="&#xe902;" glyph-name="cancel" d="M1024 857.6l-102.4 102.4-409.6-409.6-409.6 409.6-102.4-102.4 409.6-409.6-409.6-409.6 102.4-102.4 409.6 409.6 409.6-409.6 102.4 102.4-409.6 409.6z" />
<glyph unicode="&#xe903;" glyph-name="chat" d="M1001.728 752.896h-131.328v-460.8h-665.6v-98.304c0-27.648 51.2-55.296 80.64-55.296h563.2l175.36-199.936v768c0 28.16 6.656 47.104-21.504 47.104zM768 450.048v460.8c0 27.904 6.144 46.848-22.016 46.848h-665.6c-27.648 0-80.384-18.944-80.384-47.104v-716.8l234.24 200.704h512c28.16 0 21.504 27.136 21.504 55.296z" />
<glyph unicode="&#xe904;" glyph-name="check" d="M942.080 838.4l-616.704-615.936-242.688 242.688-82.688-82.176 325.376-325.376 698.624 698.624-81.92 82.176z" />
<glyph unicode="&#xe905;" glyph-name="crown" d="M512 859.392l-227.584-297.984-284.416 82.432 83.456-406.272h870.4l70.144 406.528-284.416-82.688-227.584 297.984zM86.272 156.928h864.768v-120.32h-864.768v120.32z" />
<glyph unicode="&#xe906;" glyph-name="device" d="M698.112 960h-372.48c-77.055 0-139.52-62.465-139.52-139.52v-744.96c0-77.055 62.465-139.52 139.52-139.52h372.48c77.055 0 139.52 62.465 139.52 139.52v744.96c0 77.055-62.465 139.52-139.52 139.52zM604.928 29.184h-186.112v46.336h186.112zM756.224 168.704h-488.704v651.776h488.704z" />
<glyph unicode="&#xe907;" glyph-name="favorite" d="M512 152.576l316.416-190.976-83.968 359.936 279.552 242.176-368.128 31.232-143.872 339.456-143.872-339.456-368.128-31.232 279.552-242.176-83.968-359.936z" />
<glyph unicode="&#xe908;" glyph-name="gochat" d="M921.6 960h-819.2c-56.554 0-102.4-45.846-102.4-102.4v-921.6l204.8 204.8h716.8c56.554 0 102.4 45.846 102.4 102.4v614.4c0 56.554-45.846 102.4-102.4 102.4z" />
<glyph unicode="&#xe909;" glyph-name="heart" d="M230.4 864.512c-132.778-29.432-230.604-146.17-230.604-285.757 0-61.886 19.229-119.28 52.037-166.535 101.767-178.236 280.967-295.484 458.119-389.18l2.304-1.28c178.944 93.44 358.144 210.432 460.544 388.608 32.082 46.245 51.251 103.558 51.251 165.348 0 139.532-97.749 256.232-228.505 285.36-23.645 7.889-48.666 12.445-74.687 12.905-69.073-0.398-131.286-28.503-176.34-73.718-8.439-6.392-18.91-10.505-30.3-11.262l-2.22-0.009c-11.308 0.764-21.526 4.881-29.816 11.354-45.089 45.353-107.632 73.515-176.752 73.638-27.105-0.913-52.871-4.317-77.77-9.998z" />
<glyph unicode="&#xe90a;" glyph-name="help" d="M512 960c-282.77 0-512-229.23-512-512s229.23-512 512-512c282.77 0 512 229.23 512 512s-229.23 512-512 512zM563.2 89.6h-102.4v102.4h102.4zM669.184 486.4l-46.080-47.104c-37.075-32.149-60.386-79.323-60.386-131.941 0-4.559 0.175-9.077 0.519-13.548l-102.437 0.593v25.6c0.104 56.547 22.967 107.734 59.914 144.906l63.478 64.502c18.646 18.197 30.209 43.578 30.209 71.659 0 0.187-0.001 0.374-0.002 0.561 0 56.525-45.846 102.371-102.4 102.371s-102.4-45.846-102.4-102.4h-102.4c0 113.108 91.692 204.8 204.8 204.8s204.8-91.692 204.8-204.8c0-0.043 0-0.093 0-0.143 0-44.925-18.195-85.6-47.618-115.058z" />
<glyph unicode="&#xe90b;" glyph-name="like" d="M0 536.32h186.112v-558.592h-186.112v558.592zM1024 489.984c-0.145 51.406-41.778 93.039-93.17 93.184h-293.646l44.288 212.736 1.28 14.848c-0.036 19.292-7.854 36.75-20.481 49.409l-49.151 48.639-305.92-307.2c-16.91-16.558-27.393-39.623-27.393-65.135 0-0.141 0-0.282 0.001-0.423v-465.13c0.145-51.406 41.778-93.039 93.17-93.184h418.318c0.139-0.001 0.304-0.001 0.469-0.001 38.197 0 70.982 23.174 85.062 56.229l140.773 328.796c4.050 9.985 6.401 21.567 6.401 33.698 0 0.123 0 0.246-0.001 0.369v88.813z" />
<glyph unicode="&#xe90c;" glyph-name="mail" d="M921.6 857.6h-819.2c-56.554 0-102.4-45.846-102.4-102.4v-614.4c0-56.554 45.846-102.4 102.4-102.4h819.2c56.554 0 102.4 45.846 102.4 102.4v614.4c0 56.554-45.846 102.4-102.4 102.4zM921.6 652.8l-409.6-256-409.6 256v102.4l409.6-256 409.6 256z" />
<glyph unicode="&#xe90d;" glyph-name="match" d="M487.68 260.608c-121.088 114.688-196.096 204.8-196.096 314.368 0 0.15-0.001 0.328-0.001 0.506 0 48.31 16.582 92.747 44.365 127.93-37.321 37.491-88.682 61.251-145.595 62.026-0.758 0.009-1.482 0.013-2.207 0.013-103.918 0-188.16-84.242-188.16-188.16 0-0.814 0.005-1.627 0.015-2.439-0.001-130.437 117.503-236.933 295.423-398.213l51.2-45.568 51.2 45.312c30.72 29.696 61.696 57.6 89.856 84.224zM677.888 130.56l-51.2 45.568c-177.152 161.792-293.888 268.288-293.888 399.104-0.005 0.533-0.009 1.164-0.009 1.795 0 104.059 84.357 188.416 188.416 188.416 0.363 0 0.726-0.001 1.088-0.003 62.114-0.461 117.704-28.245 155.366-71.924 38.169 43.741 93.865 71.542 156.063 71.923 0.602 0.006 1.234 0.009 1.867 0.009 104.059 0 188.416-84.357 188.416-188.416 0-0.633-0.003-1.265-0.009-1.897 0.001-130.72-117.759-237.216-295.679-399.264z" />
<glyph unicode="&#xe90e;" glyph-name="members" d="M787.968 481.024c70.692 0 128 57.308 128 128s-57.308 128-128 128c-70.692 0-128-57.308-128-128s57.308-128 128-128zM403.968 532.224c84.831 0 153.6 68.769 153.6 153.6s-68.769 153.6-153.6 153.6c-84.831 0-153.6-68.769-153.6-153.6s68.769-153.6 153.6-153.6zM742.4 378.624c-93.696 0-281.6-47.104-281.6-140.8v-180.992h563.2v180.992c0 93.696-187.904 140.8-281.6 140.8zM381.184 429.824c-119.296 0-381.184-59.904-381.184-179.2v-193.792h358.4v180.992c0 43.52 28.16 119.808 132.608 177.664-32.643 8.17-70.378 13.34-109.155 14.323z" />
<glyph unicode="&#xe90f;" glyph-name="menu" d="M0 220.416h1024v-113.664h-1024v113.664zM0 504.832h1024v-113.664h-1024v113.664zM0 789.248h1024v-113.664h-1024v113.664z" />
<glyph unicode="&#xe910;" glyph-name="profile" d="M768 704c0-141.385-114.615-256-256-256s-256 114.615-256 256c0 141.385 114.615 256 256 256s256-114.615 256-256zM512 320c-171.008 0-512-85.76-512-256v-128h1024v128c0 170.24-340.992 256-512 256z" />
<glyph unicode="&#xe911;" glyph-name="report" d="M626.432 839.424l-24.064 120.576h-542.208v-1024h120.576v421.632h337.152l24.064-120.576h421.632v602.368z" />
<glyph unicode="&#xe912;" glyph-name="search" d="M731.904 315.904h-46.336l-16.384 15.872c57.143 66.271 91.945 153.211 91.945 248.279 0 210.522-170.662 381.184-381.184 381.184s-381.184-170.662-381.184-381.184c0-210.522 170.662-381.184 381.184-381.184 95.068 0 182.007 34.802 248.773 92.362l15.378-16.8v-46.336l292.608-292.096 87.296 87.296zM380.672 315.904c-145.485 0-263.424 117.939-263.424 263.424s117.939 263.424 263.424 263.424c145.485 0 263.424-117.939 263.424-263.424 0-0.076 0-0.166 0-0.256 0-145.344-117.824-263.168-263.168-263.168-0.090 0-0.18 0-0.27 0z" />
<glyph unicode="&#xe913;" glyph-name="settings" d="M892.672 396.8c2.182 15.297 3.481 33.047 3.583 51.081-0.102 18.271-1.402 36.022-3.822 53.414l108.271 82.385c5.859 4.731 9.576 11.914 9.576 19.965 0 4.714-1.274 9.131-3.497 12.924l-102.335 177.031c-4.495 7.762-12.761 12.9-22.228 12.9-3.235 0-6.33-0.6-9.18-1.695l-127.825-51.141c-24.979 19.906-53.482 37.073-84.1 50.269l-21.372 134.563c-2.042 12.269-12.578 21.506-25.271 21.506-0.116 0-0.232-0.001-0.347-0.002h-204.782c-0.098 0.001-0.214 0.002-0.329 0.002-12.693 0-23.228-9.238-25.25-21.357l-19.477-135.83c-33.029-14.377-61.509-31.524-87.378-51.843l-127.15 51.843c-2.674 1.036-5.769 1.636-9.004 1.636-9.466 0-17.732-5.138-22.162-12.777l-102.466-177.275c-2.157-3.673-3.432-8.089-3.432-12.803 0-8.051 3.716-15.234 9.527-19.927l109.617-82.47c-2.161-15.276-3.46-33.026-3.583-51.055 0.124-18.32 1.423-36.070 3.823-53.468l-108.272-81.334c-5.859-4.731-9.576-11.914-9.576-19.965 0-4.714 1.274-9.131 3.497-12.924l102.335-177.031c4.495-7.762 12.761-12.9 22.228-12.9 3.235 0 6.33 0.6 9.18 1.695l127.825 51.141c24.979-19.906 53.482-37.073 84.1-50.269l21.884-136.611c2.042-12.269 12.578-21.506 25.271-21.506 0.116 0 0.232 0.001 0.347 0.002h204.782c0.098-0.001 0.214-0.002 0.329-0.002 12.693 0 23.228 9.238 25.25 21.357l19.477 135.83c33.029 14.377 61.509 31.524 87.378 51.843l127.15-51.843c2.674-1.036 5.769-1.636 9.004-1.636 9.466 0 17.732 5.138 22.162 12.777l102.466 177.275c2.157 3.673 3.432 8.089 3.432 12.803 0 8.051-3.716 15.234-9.527 19.927zM512.256 268.8c-98.969 0-179.2 80.231-179.2 179.2s80.231 179.2 179.2 179.2c98.969 0 179.2-80.231 179.2-179.2s-80.231-179.2-179.2-179.2z" />
<glyph unicode="&#xe914;" glyph-name="view" d="M512 797.184c-231.432-0.131-429.444-143.079-510.687-345.48 81.282-209.721 279.303-352.566 510.687-352.566s429.405 142.845 510.687 345.161c-81.243 209.807-279.255 352.755-510.67 352.885zM512 215.296c-128.519 0-232.704 104.185-232.704 232.704s104.185 232.704 232.704 232.704c128.519 0 232.704-104.185 232.704-232.704s-104.185-232.704-232.704-232.704zM651.52 448c0-77.055-62.465-139.52-139.52-139.52s-139.52 62.465-139.52 139.52c0 77.055 62.465 139.52 139.52 139.52s139.52-62.465 139.52-139.52z" />
<glyph unicode="&#xe915;" glyph-name="coins" d="M512 960c-282.77 0-512-229.23-512-512s229.23-512 512-512c282.77 0 512 229.23 512 512s-229.23 512-512 512zM512 170.752v0c-12.8 0-27.648 0-42.496 2.304l-18.432-87.040-42.496 5.632 18.432 84.48c-51.2 4.864-96.768 11.776-96.768 11.776l6.144 80.896s54.272-6.912 107.776-11.008l32 149.248c-102.4 27.904-153.6 51.2-153.6 153.6s70.912 141.568 188.672 141.568c9.216 0 19.2 0 29.44 0l19.968 91.392h42.496l-20.992-96.256c48.64-3.072 91.904-8.448 91.904-8.448l-2.56-81.92s-57.856 4.864-106.752 7.936l-29.44-134.4c118.784-33.792 153.6-56.832 153.6-153.6 0.512-111.104-62.976-156.16-176.896-156.16zM516.352 396.8v0l-29.952-141.568h24.064c54.272 0 80.128 18.944 80.128 72.192 0.256 39.424-19.968 51.712-74.24 69.376zM521.728 616.96h-11.776c-54.272 0-90.112-9.216-90.112-57.344 0-36.352 16.64-51.2 74.496-67.84z" />
<glyph unicode="&#xe916;" glyph-name="gift" horiz-adv-x="1078" d="M970.105 744.421h-117.491c5.358 15.39 8.452 33.13 8.452 51.592 0 89.296-72.388 161.684-161.684 161.684-55.215 0-103.965-27.677-133.135-69.914l-27.3-35.572-26.947 35.571c-29.385 43.839-78.736 72.31-134.737 72.31-89.296 0-161.684-72.388-161.684-161.684 0-0.032 0-0.064 0-0.096 0.158-19.373 3.701-37.876 10.065-55.008l-117.854 1.118c-59.53 0-107.789-48.259-107.789-107.789v-592.842c0-59.53 48.259-107.789 107.789-107.789h862.316c59.53 0 107.789 48.259 107.789 107.789v592.842c0 59.53-48.259 107.789-107.789 107.789zM700.632 852.211c29.765 0 53.895-24.129 53.895-53.895s-24.129-53.895-53.895-53.895c-29.765 0-53.895 24.129-53.895 53.895s24.129 53.895 53.895 53.895zM377.263 852.211c29.765 0 53.895-24.129 53.895-53.895s-24.129-53.895-53.895-53.895c-29.765 0-53.895 24.129-53.895 53.895s24.129 53.895 53.895 53.895zM970.105 43.789h-862.316v107.789h862.316zM970.105 313.263h-862.316v323.368h273.785l-112.101-152.522 87.309-63.057 182.164 247.916 182.164-247.916 87.309 63.057-112.101 152.522h273.785z" />
<glyph unicode="&#xe917;" glyph-name="arrowleft" horiz-adv-x="632" d="M632.32 839.68l-390.912-391.68 390.912-391.68-120.32-120.32-512 512 512 512z" />
</font>
</defs>
</svg>
